<?xml version="1.0" encoding="UTF-8" standalone="no"?>
<!DOCTYPE svg PUBLIC "-//W3C//DTD SVG 20010904//EN"
              "http://www.w3.org/TR/2001/REC-SVG-20010904/DTD/svg10.dtd">

<svg xmlns="http://www.w3.org/2000/svg"
     width="24" height="24"
     viewBox="0 0 512 512">
<path d="M0 0h24v24H0z" fill="none"/>          
  <path 
        d="M 49.00,36.46
           C 67.08,33.97 86.05,37.87 100.00,50.18
             131.44,77.95 125.55,130.44 88.00,149.74
             75.53,156.15 68.51,156.16 55.00,156.00
             32.23,155.73 10.63,138.00 3.09,117.00
             -0.43,107.20 -0.12,101.10 0.00,91.00
             0.33,63.24 23.23,42.03 49.00,36.46 Z
           M 223.00,76.00
           C 218.91,71.90 215.06,68.67 213.22,63.00
             209.04,50.10 216.85,36.41 231.00,36.02
             244.27,35.65 248.21,42.17 257.00,51.00
             272.86,66.94 276.25,79.23 276.00,101.00
             275.81,116.42 267.60,130.35 257.00,141.00
             247.96,150.08 244.53,156.36 231.00,155.99
             217.42,155.61 209.29,142.65 212.94,130.00
             214.66,124.00 218.75,120.29 223.00,116.00
             223.00,116.00 184.00,116.00 184.00,116.00
             177.12,116.00 170.08,116.89 164.04,112.87
             154.18,106.31 153.14,89.55 161.33,81.33
             166.24,76.40 170.49,76.01 177.00,76.00
             177.00,76.00 223.00,76.00 223.00,76.00 Z
           M 361.00,36.15
           C 361.00,36.15 404.00,36.15 404.00,36.15
             404.00,36.15 437.00,36.15 437.00,36.15
             458.99,36.00 475.30,34.63 493.00,51.09
             525.12,80.98 515.85,133.85 476.00,151.69
             469.25,154.71 462.35,155.99 455.00,156.00
             455.00,156.00 389.00,156.00 389.00,156.00
             368.71,156.00 354.84,158.09 337.00,145.56
             307.54,124.87 303.16,81.59 327.17,55.00
             336.45,44.73 347.69,39.34 361.00,36.15 Z
           M 367.00,76.11
           C 352.32,80.30 346.57,98.70 357.19,109.91
             362.62,115.64 366.64,115.99 374.00,116.00
             374.00,116.00 444.00,116.00 444.00,116.00
             451.04,115.99 459.33,115.44 464.90,110.61
             473.20,103.42 473.20,88.58 464.90,81.39
             459.92,77.07 452.37,76.08 446.00,76.11
             446.00,76.11 396.00,76.11 396.00,76.11
             396.00,76.11 367.00,76.11 367.00,76.11 Z
           M 55.00,77.39
           C 30.95,84.62 39.52,120.16 65.00,114.61
             78.75,111.62 83.52,93.38 74.61,83.10
             69.36,77.04 62.45,76.39 55.00,77.39 Z
           M 49.00,196.46
           C 67.08,193.97 86.05,197.87 100.00,210.18
             131.44,237.95 125.55,290.44 88.00,309.74
             75.53,316.15 68.51,316.16 55.00,316.00
             32.23,315.73 10.63,298.00 3.09,277.00
             -0.43,267.20 -0.12,261.10 0.00,251.00
             0.33,223.24 23.23,202.03 49.00,196.46 Z
           M 223.00,236.00
           C 218.91,231.90 215.06,228.67 213.22,223.00
             209.04,210.10 216.85,196.41 231.00,196.01
             244.27,195.65 248.21,202.17 257.00,211.00
             272.86,226.94 276.25,239.23 276.00,261.00
             275.81,276.42 267.60,290.35 257.00,301.00
             247.96,310.08 244.53,316.36 231.00,315.98
             217.42,315.61 209.29,302.65 212.94,290.00
             214.66,284.00 218.75,280.29 223.00,276.00
             223.00,276.00 184.00,276.00 184.00,276.00
             177.12,276.00 170.08,276.89 164.04,272.87
             154.18,266.31 153.14,249.55 161.33,241.33
             166.24,236.40 170.49,236.01 177.00,236.00
             177.00,236.00 223.00,236.00 223.00,236.00 Z
           M 361.00,196.15
           C 361.00,196.15 404.00,196.15 404.00,196.15
             404.00,196.15 437.00,196.15 437.00,196.15
             458.99,196.00 475.30,194.63 493.00,211.09
             525.12,240.98 515.85,293.85 476.00,311.69
             469.25,314.71 462.35,315.99 455.00,316.00
             455.00,316.00 389.00,316.00 389.00,316.00
             368.71,316.00 354.84,318.09 337.00,305.56
             307.54,284.87 303.16,241.59 327.17,215.00
             336.45,204.73 347.69,199.34 361.00,196.15 Z
           M 367.00,236.11
           C 352.32,240.30 346.57,258.70 357.19,269.91
             362.62,275.64 366.64,275.99 374.00,276.00
             374.00,276.00 444.00,276.00 444.00,276.00
             451.04,275.99 459.33,275.44 464.90,270.61
             473.20,263.42 473.20,248.58 464.90,241.39
             459.92,237.07 452.37,236.08 446.00,236.11
             446.00,236.11 396.00,236.11 396.00,236.11
             396.00,236.11 367.00,236.11 367.00,236.11 Z
           M 55.00,237.39
           C 30.95,244.62 39.52,280.16 65.00,274.61
             78.75,271.62 83.52,253.38 74.61,243.10
             69.36,237.04 62.45,236.39 55.00,237.39 Z
           M 49.00,356.46
           C 67.08,353.97 86.05,357.87 100.00,370.18
             131.44,397.95 125.55,450.44 88.00,469.74
             75.53,476.15 68.51,476.16 55.00,476.00
             32.23,475.73 10.63,458.00 3.09,437.00
             -0.43,427.20 -0.12,421.10 0.00,411.00
             0.33,383.24 23.23,362.03 49.00,356.46 Z
           M 223.00,396.00
           C 218.91,391.90 215.06,388.67 213.22,383.00
             209.04,370.10 216.85,356.41 231.00,356.02
             244.27,355.65 248.21,362.17 257.00,371.00
             272.86,386.94 276.25,399.23 276.00,421.00
             275.81,436.42 267.60,450.35 257.00,461.00
             247.96,470.08 244.53,476.36 231.00,475.98
             217.42,475.61 209.29,462.65 212.94,450.00
             214.66,444.00 218.75,440.29 223.00,436.00
             223.00,436.00 184.00,436.00 184.00,436.00
             177.12,436.00 170.08,436.89 164.04,432.87
             154.18,426.31 153.14,409.55 161.33,401.33
             166.24,396.40 170.49,396.01 177.00,396.00
             177.00,396.00 223.00,396.00 223.00,396.00 Z
           M 361.00,356.15
           C 361.00,356.15 404.00,356.15 404.00,356.15
             404.00,356.15 437.00,356.15 437.00,356.15
             458.99,356.00 475.30,354.63 493.00,371.09
             525.12,400.98 515.85,453.85 476.00,471.69
             469.25,474.71 462.35,475.99 455.00,476.00
             455.00,476.00 389.00,476.00 389.00,476.00
             368.71,476.00 354.84,478.09 337.00,465.56
             307.54,444.87 303.16,401.59 327.17,375.00
             336.45,364.73 347.69,359.34 361.00,356.15 Z
           M 367.00,396.11
           C 352.32,400.30 346.57,418.70 357.19,429.91
             362.62,435.64 366.64,435.99 374.00,436.00
             374.00,436.00 444.00,436.00 444.00,436.00
             451.04,435.99 459.33,435.44 464.90,430.61
             473.20,423.42 473.20,408.58 464.90,401.39
             459.92,397.07 452.37,396.08 446.00,396.11
             446.00,396.11 396.00,396.11 396.00,396.11
             396.00,396.11 367.00,396.11 367.00,396.11 Z
           M 55.00,397.39
           C 30.95,404.62 39.52,440.16 65.00,434.61
             78.75,431.62 83.52,413.38 74.61,403.10
             69.36,397.04 62.45,396.39 55.00,397.39 Z" />
</svg>
