<?xml version="1.0" encoding="UTF-8" standalone="no"?>
<!DOCTYPE svg PUBLIC "-//W3C//DTD SVG 20010904//EN"
              "http://www.w3.org/TR/2001/REC-SVG-20010904/DTD/svg10.dtd">

<svg xmlns="http://www.w3.org/2000/svg"
     width="24" height="24"
     viewBox="0 0 512 512">
<path d="M0 0h24v24H0z" fill="none"/>          
  <path 
        d="M 49.00,0.46
           C 78.53,-3.61 106.47,9.92 116.91,39.00
             120.25,48.31 120.01,53.45 120.00,63.00
             119.99,69.55 119.80,70.63 118.12,77.00
             117.54,79.17 116.11,82.89 116.63,85.00
             117.30,87.71 121.02,91.02 123.00,93.00
             123.00,93.00 136.00,106.00 136.00,106.00
             137.60,107.60 140.99,111.23 143.00,111.98
             146.44,113.25 150.35,109.29 153.00,107.44
             158.81,103.37 171.58,95.83 178.00,93.00
             198.31,84.07 222.59,76.03 245.00,76.00
             245.00,76.00 269.00,76.00 269.00,76.00
             289.38,76.24 322.26,86.07 340.00,96.00
             347.56,100.24 352.82,102.97 360.00,108.15
             362.46,109.93 365.75,113.18 369.00,111.98
             371.01,111.23 374.40,107.60 376.00,106.00
             376.00,106.00 389.00,93.00 389.00,93.00
             390.98,91.02 394.70,87.71 395.37,85.00
             395.89,82.89 394.46,79.17 393.88,77.00
             392.39,71.37 392.03,69.85 392.00,64.00
             391.95,54.14 391.64,48.61 395.09,39.00
             402.65,17.94 424.17,0.27 447.00,0.00
             447.00,0.00 455.00,0.00 455.00,0.00
             478.95,0.04 499.91,15.94 508.54,38.00
             512.37,47.81 512.12,54.80 512.00,65.00
             511.75,85.89 497.20,105.14 479.00,114.24
             472.19,117.64 464.64,119.91 457.00,119.77
             452.87,120.04 444.75,120.20 441.00,119.77
             441.00,119.77 428.00,116.50 428.00,116.50
             424.78,116.73 422.16,119.87 420.00,122.00
             420.00,122.00 406.00,136.00 406.00,136.00
             404.40,137.60 400.77,140.99 400.02,143.00
             398.68,146.63 408.13,158.19 410.40,162.00
             420.52,179.02 426.89,194.80 431.63,214.00
             433.84,222.97 435.99,235.82 436.00,245.00
             436.05,275.67 435.81,290.37 424.95,320.00
             420.80,331.31 414.41,343.84 407.95,354.00
             406.09,356.91 399.32,365.04 399.75,368.00
             400.09,370.39 403.34,373.32 405.00,375.00
             405.00,375.00 420.00,390.00 420.00,390.00
             422.16,392.13 424.78,395.27 428.00,395.50
             430.65,395.70 437.64,392.02 449.00,392.00
             449.00,392.00 457.00,392.00 457.00,392.00
             469.05,392.15 483.03,398.26 492.00,406.18
             522.51,433.13 518.11,484.75 482.00,504.69
             468.85,511.95 461.48,512.17 447.00,512.00
             424.23,511.73 402.63,494.00 395.09,473.00
             391.57,463.20 391.88,457.10 392.00,447.00
             392.11,437.64 396.13,430.08 395.37,427.00
             394.75,424.48 391.80,421.82 390.00,420.00
             390.00,420.00 376.00,406.00 376.00,406.00
             374.17,404.18 370.56,400.11 368.00,399.75
             365.04,399.32 356.91,406.09 354.00,407.95
             343.84,414.41 331.31,420.80 320.00,424.95
             296.13,433.70 280.19,436.00 255.00,436.00
             239.14,436.00 229.62,435.48 214.00,431.63
             195.74,427.12 178.01,420.27 162.00,410.32
             162.00,410.32 146.00,399.99 146.00,399.99
             144.83,399.62 144.16,399.59 143.00,399.99
             140.99,400.77 137.60,404.40 136.00,406.00
             136.00,406.00 122.00,420.00 122.00,420.00
             119.87,422.16 116.73,424.78 116.50,428.00
             116.50,428.00 119.77,441.00 119.77,441.00
             120.20,444.75 120.04,452.87 119.77,457.00
             119.90,465.48 117.17,473.56 113.22,481.00
             97.34,510.91 59.18,520.71 30.00,504.69
             13.44,495.60 0.23,476.20 0.00,457.00
             0.00,457.00 0.00,447.00 0.00,447.00
             0.35,417.56 28.02,392.05 57.00,392.00
             62.44,391.99 67.66,391.68 73.00,392.89
             75.69,393.49 82.78,395.92 85.00,395.37
             88.52,394.50 98.86,383.14 102.00,380.00
             104.36,377.64 111.83,370.99 112.25,368.00
             112.67,365.10 107.17,358.71 105.43,356.00
             99.09,346.08 94.59,337.78 89.86,327.00
             82.74,310.76 76.03,284.72 76.00,267.00
             76.00,267.00 76.00,245.00 76.00,245.00
             76.03,224.67 84.89,192.97 94.32,175.00
             98.25,167.52 102.59,159.92 107.44,153.00
             108.99,150.79 112.65,146.77 112.25,144.00
             111.89,141.44 107.82,137.83 106.00,136.00
             106.00,136.00 92.00,122.00 92.00,122.00
             90.18,120.20 87.52,117.25 85.00,116.63
             81.92,115.87 74.36,119.89 65.00,120.00
             46.37,120.22 33.46,117.89 19.00,104.83
             -5.27,82.90 -6.57,43.07 15.17,19.00
             24.45,8.73 35.69,3.34 49.00,0.46 Z
           M 55.00,41.39
           C 30.95,48.62 39.52,84.16 65.00,78.61
             78.75,75.62 83.52,57.38 74.61,47.10
             69.36,41.04 62.45,40.39 55.00,41.39 Z
           M 447.00,41.39
           C 422.95,48.62 431.52,84.16 457.00,78.61
             470.75,75.62 475.52,57.38 466.61,47.10
             461.36,41.04 454.45,40.39 447.00,41.39 Z
           M 256.00,116.57
           C 241.67,117.29 235.42,116.27 221.00,119.89
             179.94,130.21 143.29,160.75 127.01,200.00
             99.28,266.85 123.68,342.17 187.00,378.42
             198.64,385.09 221.66,394.06 235.00,394.70
             266.13,396.20 292.75,394.90 321.00,379.69
             369.72,353.45 397.17,304.92 395.04,250.00
             394.26,229.93 389.76,211.06 380.73,193.00
             372.31,176.15 359.37,160.52 345.00,148.44
             324.83,131.48 297.29,119.71 271.00,117.17
             271.00,117.17 256.00,116.57 256.00,116.57 Z
           M 196.00,236.00
           C 196.00,236.00 198.72,192.00 198.72,192.00
             199.45,186.02 199.45,179.42 202.41,174.00
             210.08,159.97 231.39,161.03 238.55,175.00
             242.55,182.80 239.96,190.87 239.17,199.00
             239.17,199.00 237.00,236.00 237.00,236.00
             237.00,236.00 275.00,236.00 275.00,236.00
             275.00,236.00 272.83,199.00 272.83,199.00
             272.83,199.00 271.18,186.00 271.18,186.00
             269.71,165.20 296.70,156.16 308.35,172.04
             312.52,177.71 312.46,185.32 313.28,192.00
             313.28,192.00 316.00,236.00 316.00,236.00
             316.00,236.00 336.00,236.00 336.00,236.00
             349.33,236.16 356.30,243.83 355.99,257.00
             355.85,262.60 354.59,266.48 350.53,270.53
             342.63,278.44 326.58,276.00 316.00,276.00
             316.00,276.00 313.28,320.00 313.28,320.00
             312.46,326.68 312.52,334.29 308.35,339.96
             296.42,356.22 269.76,346.08 271.18,326.00
             271.18,326.00 272.83,312.00 272.83,312.00
             272.83,312.00 275.00,276.00 275.00,276.00
             275.00,276.00 237.00,276.00 237.00,276.00
             237.00,276.00 239.17,313.00 239.17,313.00
             239.96,321.13 242.55,329.20 238.55,337.00
             231.39,350.97 210.11,351.99 202.41,338.00
             199.47,332.64 199.45,325.93 198.72,320.00
             198.72,320.00 196.00,276.00 196.00,276.00
             185.38,276.00 169.33,278.41 161.33,270.53
             151.95,261.30 153.33,236.12 176.00,236.00
             176.00,236.00 196.00,236.00 196.00,236.00 Z
           M 55.00,433.39
           C 30.95,440.62 39.52,476.16 65.00,470.61
             78.75,467.62 83.52,449.38 74.61,439.10
             69.36,433.04 62.45,432.39 55.00,433.39 Z
           M 447.00,433.39
           C 422.95,440.62 431.52,476.16 457.00,470.61
             470.75,467.62 475.52,449.38 466.61,439.10
             461.36,433.04 454.45,432.39 447.00,433.39 Z" />
</svg>
