<?xml version="1.0" encoding="UTF-8" standalone="no"?>
<!DOCTYPE svg PUBLIC "-//W3C//DTD SVG 20010904//EN"
              "http://www.w3.org/TR/2001/REC-SVG-20010904/DTD/svg10.dtd">

<svg xmlns="http://www.w3.org/2000/svg"
     width="24" height="24"
     viewBox="0 0 512 512">
<path d="M0 0h24v24H0z" fill="none"/>          
  <path 
        d="M 236.00,279.00
           C 219.99,276.88 206.43,272.46 192.00,265.25
             116.75,227.62 93.00,130.03 139.52,61.00
             160.54,29.81 194.78,7.44 232.00,1.44
             243.26,-0.38 254.63,-0.13 266.00,0.00
             282.32,0.19 303.45,6.50 318.00,13.75
             334.43,21.95 348.51,32.31 360.83,46.00
             408.13,98.55 407.74,178.44 362.56,232.00
             352.91,243.44 338.16,255.46 325.00,262.69
             309.38,271.26 293.67,276.66 276.00,279.00
             276.00,279.00 276.00,386.00 276.00,386.00
             276.00,388.27 275.78,391.66 277.02,393.61
             278.44,395.84 282.65,397.53 285.00,398.78
             289.31,401.08 293.37,403.89 297.00,407.17
             307.62,416.76 315.83,432.52 316.00,447.00
             316.14,459.16 316.26,466.65 310.74,478.00
             301.65,496.70 282.43,511.74 261.00,512.00
             261.00,512.00 251.00,512.00 251.00,512.00
             237.42,511.84 222.53,504.45 213.04,494.96
             204.52,486.44 197.47,473.10 196.09,461.00
             196.09,461.00 196.09,447.00 196.09,447.00
             196.17,432.52 204.38,416.76 215.00,407.17
             218.63,403.89 222.69,401.08 227.00,398.78
             229.35,397.53 233.56,395.84 234.98,393.61
             236.22,391.66 236.00,388.27 236.00,386.00
             236.00,386.00 236.00,279.00 236.00,279.00 Z
           M 244.00,40.29
           C 227.31,42.83 213.10,47.41 199.00,57.03
             151.91,89.15 141.39,157.22 176.67,202.00
             187.69,216.00 202.52,226.87 219.00,233.55
             234.96,240.01 252.08,240.80 269.00,238.71
             282.26,237.08 296.64,231.95 308.00,224.94
             319.68,217.72 329.05,209.26 336.96,198.00
             344.19,187.72 349.59,176.20 352.63,164.00
             361.31,129.09 349.81,90.31 323.00,66.17
             308.36,52.99 288.60,43.70 269.00,41.07
             269.00,41.07 260.00,41.07 260.00,41.07
             255.32,40.51 248.51,39.90 244.00,40.29 Z
           M 245.00,80.46
           C 263.08,77.97 282.05,81.87 296.00,94.18
             327.44,121.95 321.55,174.44 284.00,193.74
             271.53,200.15 264.51,200.16 251.00,200.00
             243.99,199.91 237.38,197.96 231.00,195.14
             205.28,183.77 193.37,159.18 196.72,132.00
             197.35,126.88 196.99,125.36 198.75,120.00
             205.77,98.56 223.52,85.10 245.00,80.46 Z
           M 251.00,121.39
           C 226.95,128.62 235.52,164.16 261.00,158.61
             274.75,155.62 279.52,137.38 270.61,127.10
             265.36,121.04 258.45,120.39 251.00,121.39 Z
           M 125.00,312.23
           C 125.00,312.23 168.00,312.23 168.00,312.23
             174.88,312.00 181.92,311.11 187.96,315.13
             198.38,322.06 198.80,339.18 189.70,347.32
             184.57,351.91 180.46,351.99 174.00,352.00
             174.00,352.00 153.00,352.00 153.00,352.00
             139.67,352.00 123.69,350.65 117.96,366.00
             115.71,372.06 115.88,381.49 116.00,388.00
             116.18,397.36 120.15,395.03 131.00,402.36
             138.24,407.25 144.47,414.36 148.69,422.00
             163.01,447.93 156.71,483.50 132.00,500.96
             117.77,511.01 107.74,512.19 91.00,512.00
             82.50,511.90 74.45,509.17 67.00,505.22
             36.70,489.17 26.84,448.94 44.46,420.00
             48.79,412.89 54.19,407.22 61.00,402.44
             64.17,400.21 73.54,395.86 74.98,393.61
             76.22,391.66 76.00,388.27 76.00,386.00
             76.00,386.00 76.00,369.00 76.00,369.00
             76.05,339.99 97.58,318.39 125.00,312.23 Z
           M 329.00,312.65
           C 334.85,311.44 349.26,312.00 356.00,312.00
             356.00,312.00 379.00,312.00 379.00,312.00
             408.03,312.05 435.65,337.52 436.00,367.00
             436.00,367.00 436.00,387.00 436.00,387.00
             436.08,398.44 440.58,394.52 453.00,403.76
             461.42,410.02 468.07,419.37 472.13,429.00
             476.34,439.01 476.12,446.49 476.00,457.00
             475.78,475.43 463.57,494.26 448.00,503.55
             434.35,511.69 426.32,512.18 411.00,512.00
             402.50,511.90 394.45,509.17 387.00,505.22
             356.70,489.17 346.84,448.94 364.46,420.00
             368.99,412.56 374.78,406.60 382.00,401.75
             391.77,395.18 395.82,397.29 396.00,388.00
             396.23,375.27 396.85,360.41 383.00,354.36
             378.78,352.52 372.59,352.02 368.00,352.00
             368.00,352.00 336.00,352.00 336.00,352.00
             321.93,351.83 315.64,343.54 316.02,330.00
             316.26,321.23 321.06,315.81 329.00,312.65 Z
           M 91.00,433.39
           C 66.95,440.62 75.52,476.16 101.00,470.61
             114.75,467.62 119.52,449.38 110.61,439.10
             105.36,433.04 98.45,432.39 91.00,433.39 Z
           M 251.00,433.39
           C 226.95,440.62 235.52,476.16 261.00,470.61
             274.75,467.62 279.52,449.38 270.61,439.10
             265.36,433.04 258.45,432.39 251.00,433.39 Z
           M 411.00,433.39
           C 386.95,440.62 395.52,476.16 421.00,470.61
             434.75,467.62 439.52,449.38 430.61,439.10
             425.36,433.04 418.45,432.39 411.00,433.39 Z" />
</svg>
