<?xml version="1.0" encoding="UTF-8" standalone="no"?>
<!DOCTYPE svg PUBLIC "-//W3C//DTD SVG 20010904//EN"
              "http://www.w3.org/TR/2001/REC-SVG-20010904/DTD/svg10.dtd">

<svg xmlns="http://www.w3.org/2000/svg"
     width="24" height="24"
     viewBox="0 0 512 512">
<path d="M0 0h24v24H0z" fill="none"/>     
     
  <path 
        d="M 236.00,53.00
           C 231.71,57.25 228.00,61.34 222.00,63.06
             209.35,66.71 196.39,58.58 196.02,45.00
             195.65,31.79 202.16,27.74 211.00,19.00
             227.00,3.19 239.25,-0.25 261.00,0.00
             276.42,0.19 290.35,8.40 301.00,19.00
             309.83,27.79 316.35,31.73 315.98,45.00
             315.61,58.58 302.65,66.71 290.00,63.06
             284.00,61.34 280.29,57.25 276.00,53.00
             276.00,53.00 276.00,100.00 276.00,100.00
             275.84,113.03 267.90,120.26 255.00,119.98
             250.08,119.88 246.06,118.83 242.30,115.47
             236.51,110.29 236.01,105.22 236.00,98.00
             236.00,98.00 236.00,53.00 236.00,53.00 Z
           M 95.00,125.00
           C 95.00,131.78 95.53,137.09 91.35,142.99
             83.18,154.54 65.83,154.51 57.65,142.99
             54.69,138.82 54.06,133.96 54.00,129.00
             53.82,113.25 53.40,102.89 60.04,88.00
             69.76,66.19 92.78,54.04 116.00,54.00
             116.00,54.00 129.00,54.00 129.00,54.00
             141.57,54.15 153.03,62.20 151.66,76.00
             150.73,85.37 144.45,93.01 135.00,94.84
             135.00,94.84 125.00,94.84 125.00,94.84
             125.00,94.84 148.00,118.00 148.00,118.00
             152.34,122.34 158.93,128.44 161.44,134.00
             162.82,137.05 163.00,139.72 162.99,143.00
             162.97,157.39 149.57,166.39 136.00,162.20
             130.00,160.35 124.35,154.35 120.00,150.00
             120.00,150.00 95.00,125.00 95.00,125.00 Z
           M 387.00,95.00
           C 380.22,95.00 374.91,95.53 369.01,91.35
             357.46,83.18 357.49,65.83 369.01,57.65
             373.18,54.69 378.04,54.06 383.00,54.00
             398.75,53.82 409.11,53.40 424.00,60.04
             445.86,69.79 457.96,92.72 458.00,116.00
             458.00,116.00 458.00,129.00 458.00,129.00
             457.85,141.57 449.80,153.03 436.00,151.66
             426.63,150.73 418.99,144.45 417.16,135.00
             417.16,135.00 417.16,125.00 417.16,125.00
             417.16,125.00 392.00,150.00 392.00,150.00
             387.65,154.35 382.00,160.35 376.00,162.20
             362.43,166.39 349.03,157.39 349.01,143.00
             349.00,139.72 349.18,137.05 350.56,134.00
             353.07,128.44 359.66,122.34 364.00,118.00
             364.00,118.00 387.00,95.00 387.00,95.00 Z
           M 242.00,156.43
           C 272.45,152.67 303.52,161.98 325.96,183.17
             363.74,218.84 366.02,280.26 333.74,320.00
             324.86,330.93 314.46,339.13 302.00,345.68
             283.66,355.33 268.05,356.23 248.00,356.00
             213.99,355.60 178.57,329.44 164.86,299.00
             156.45,280.32 155.97,269.83 156.00,250.00
             156.05,214.83 180.18,181.22 211.00,165.81
             220.57,161.02 231.49,158.15 242.00,156.43 Z
           M 247.00,196.29
           C 218.00,201.10 196.05,224.03 196.00,254.00
             195.99,260.45 195.72,263.55 197.24,270.00
             203.14,295.12 225.57,315.69 252.00,316.00
             262.61,316.12 270.12,314.58 280.00,310.55
             312.25,297.37 325.07,255.54 307.55,226.00
             294.83,204.55 271.41,193.97 247.00,196.29 Z
           M 53.00,276.00
           C 57.25,280.29 61.34,284.00 63.06,290.00
             66.71,302.65 58.58,315.61 45.00,315.98
             31.73,316.35 27.79,309.83 19.00,301.00
             3.18,285.11 -0.25,272.68 0.00,251.00
             0.19,235.58 8.40,221.65 19.00,211.00
             27.79,202.17 31.73,195.65 45.00,196.02
             58.58,196.39 66.71,209.35 63.06,222.00
             61.34,228.00 57.25,231.71 53.00,236.00
             53.00,236.00 98.00,236.00 98.00,236.00
             104.58,236.01 109.67,236.33 114.67,241.33
             123.50,250.15 121.44,266.88 110.96,273.39
             105.38,276.86 98.32,276.00 92.00,276.00
             92.00,276.00 53.00,276.00 53.00,276.00 Z
           M 459.00,236.00
           C 454.75,231.71 450.66,228.00 448.94,222.00
             445.29,209.35 453.42,196.39 467.00,196.02
             480.27,195.65 484.21,202.17 493.00,211.00
             508.82,226.89 512.25,239.32 512.00,261.00
             511.81,276.42 503.60,290.35 493.00,301.00
             484.21,309.83 480.27,316.35 467.00,315.98
             453.42,315.61 445.29,302.65 448.94,290.00
             450.66,284.00 454.75,280.29 459.00,276.00
             459.00,276.00 420.00,276.00 420.00,276.00
             413.26,276.00 405.96,276.88 400.09,272.87
             389.96,265.95 388.94,248.58 398.18,240.53
             403.16,236.19 407.80,236.01 414.00,236.00
             414.00,236.00 459.00,236.00 459.00,236.00 Z
           M 249.00,236.65
           C 256.89,235.03 265.83,235.77 271.47,242.18
             280.42,252.35 276.36,271.07 263.00,275.20
             255.65,277.47 245.71,275.80 240.53,269.82
             233.07,261.21 233.77,242.71 249.00,236.65 Z
           M 95.00,387.00
           C 95.00,387.00 118.00,364.00 118.00,364.00
             122.34,359.66 128.44,353.07 134.00,350.56
             137.05,349.18 139.72,349.00 143.00,349.01
             157.39,349.03 166.39,362.43 162.20,376.00
             160.35,382.00 154.35,387.65 150.00,392.00
             150.00,392.00 125.00,417.00 125.00,417.00
             132.32,417.00 137.83,416.47 143.98,421.39
             154.61,429.89 154.08,446.48 142.99,454.35
             138.11,457.81 132.71,457.99 127.00,458.00
             127.00,458.00 116.00,458.00 116.00,458.00
             91.76,457.96 68.55,445.08 59.21,422.00
             57.77,418.45 56.50,414.74 55.66,411.00
             53.74,402.42 54.00,398.52 54.00,390.00
             54.00,375.84 55.20,362.11 73.00,360.34
             82.83,359.36 92.28,366.51 94.47,376.00
             95.19,379.09 95.00,383.73 95.00,387.00 Z
           M 387.00,417.16
           C 387.00,417.16 364.00,394.00 364.00,394.00
             359.66,389.66 353.07,383.56 350.56,378.00
             349.18,374.95 349.00,372.28 349.01,369.00
             349.03,354.61 362.43,345.61 376.00,349.80
             382.00,351.65 387.65,357.65 392.00,362.00
             392.00,362.00 417.00,387.00 417.00,387.00
             417.00,380.22 416.47,374.91 420.65,369.01
             428.82,357.46 446.17,357.49 454.35,369.01
             457.31,373.18 457.94,378.04 458.00,383.00
             458.18,398.75 458.60,409.11 451.96,424.00
             442.21,445.86 419.28,457.96 396.00,458.00
             396.00,458.00 383.00,458.00 383.00,458.00
             370.43,457.85 358.97,449.80 360.34,436.00
             361.27,426.63 367.55,418.99 377.00,417.16
             377.00,417.16 387.00,417.16 387.00,417.16 Z
           M 236.00,459.00
           C 236.00,459.00 236.00,420.00 236.00,420.00
             236.00,413.12 235.11,406.08 239.13,400.04
             245.68,390.19 262.47,389.12 270.67,397.33
             275.67,402.33 275.99,407.42 276.00,414.00
             276.00,414.00 276.00,459.00 276.00,459.00
             280.29,454.75 284.00,450.66 290.00,448.94
             302.65,445.29 315.61,453.42 315.98,467.00
             316.35,480.27 309.83,484.21 301.00,493.00
             285.11,508.82 272.68,512.25 251.00,512.00
             235.62,511.82 221.66,503.53 211.00,493.00
             202.16,484.26 195.65,480.21 196.02,467.00
             196.39,453.42 209.35,445.29 222.00,448.94
             228.00,450.66 231.71,454.75 236.00,459.00 Z" />
</svg>
