<?xml version="1.0" encoding="UTF-8" standalone="no"?>
<!DOCTYPE svg PUBLIC "-//W3C//DTD SVG 20010904//EN"
              "http://www.w3.org/TR/2001/REC-SVG-20010904/DTD/svg10.dtd">

<svg xmlns="http://www.w3.org/2000/svg"
     width="24" height="24"
     viewBox="0 0 512 512">
<path d="M0 0h24v24H0z" fill="none"/>     
  <path 
        d="M 436.00,200.00
           C 436.00,200.00 436.00,223.00 436.00,223.00
             435.95,253.28 409.28,279.95 379.00,280.00
             379.00,280.00 133.00,280.00 133.00,280.00
             102.56,279.95 76.05,253.44 76.00,223.00
             76.00,223.00 76.00,57.00 76.00,57.00
             76.05,26.53 102.54,0.05 133.00,0.00
             133.00,0.00 379.00,0.00 379.00,0.00
             408.61,0.05 435.86,26.03 436.00,56.00
             436.00,56.00 436.00,80.00 436.00,80.00
             449.61,80.00 470.00,76.15 475.20,93.00
             476.10,95.92 476.00,98.98 476.00,102.00
             476.00,102.00 476.00,168.00 476.00,168.00
             476.00,178.35 477.96,188.76 468.83,196.06
             461.44,201.97 445.36,200.00 436.00,200.00 Z
           M 396.00,80.00
           C 396.00,65.97 398.55,45.93 381.00,41.35
             376.72,40.23 372.40,40.01 368.00,40.00
             368.00,40.00 184.00,40.00 184.00,40.00
             184.00,40.00 137.00,40.00 137.00,40.00
             122.65,40.07 116.02,48.11 116.00,62.00
             116.00,62.00 116.00,198.00 116.00,198.00
             116.00,198.00 116.00,213.00 116.00,213.00
             116.00,224.15 116.16,234.81 129.00,239.15
             131.88,240.12 135.00,240.00 138.00,240.00
             138.00,240.00 335.00,240.00 335.00,240.00
             335.00,240.00 371.00,240.00 371.00,240.00
             378.51,239.91 386.57,238.32 391.36,231.96
             395.49,226.49 395.99,218.61 396.00,212.00
             396.00,212.00 396.00,200.00 396.00,200.00
             372.94,200.00 357.41,202.45 338.00,186.54
             304.96,159.45 309.53,108.00 347.00,87.31
             364.24,77.79 377.23,80.00 396.00,80.00 Z
           M 436.00,120.00
           C 436.00,120.00 382.00,120.00 382.00,120.00
             375.59,120.08 368.07,120.95 363.09,125.34
             352.27,134.88 355.44,152.82 369.00,158.05
             375.85,160.69 385.61,160.00 393.00,160.00
             393.00,160.00 436.00,160.00 436.00,160.00
             436.00,160.00 436.00,120.00 436.00,120.00 Z
           M 116.00,393.00
           C 135.17,386.60 150.75,372.70 156.80,353.00
             160.29,341.63 157.82,328.84 165.33,321.33
             173.27,313.38 189.12,314.14 196.06,323.09
             200.00,328.17 199.99,331.94 200.00,338.00
             200.06,373.74 181.47,404.40 151.00,422.80
             143.88,427.10 137.92,429.52 130.00,431.98
             127.10,432.87 120.53,434.15 118.49,435.85
             116.63,437.40 114.92,441.72 113.74,444.00
             111.48,448.40 108.93,452.24 105.70,456.00
             96.11,467.16 79.90,475.82 65.00,476.00
             65.00,476.00 55.00,476.00 55.00,476.00
             31.09,475.72 9.79,457.08 2.52,435.00
             -0.53,425.75 -0.11,420.49 0.00,411.00
             0.35,381.59 28.05,356.05 57.00,356.00
             57.00,356.00 64.00,356.00 64.00,356.00
             87.43,356.11 106.98,372.08 116.00,393.00 Z
           M 249.00,316.65
           C 263.73,313.62 275.92,319.73 276.00,336.00
             276.00,336.00 276.00,386.00 276.00,386.00
             276.00,388.27 275.78,391.66 277.02,393.61
             278.42,395.80 288.75,400.75 292.00,403.04
             298.69,407.77 304.73,414.83 308.69,422.00
             323.01,447.93 316.71,483.50 292.00,500.96
             277.77,511.01 267.74,512.19 251.00,512.00
             242.50,511.90 234.45,509.17 227.00,505.22
             196.70,489.17 186.84,448.94 204.46,420.00
             208.79,412.89 214.19,407.22 221.00,402.44
             224.17,400.21 233.54,395.86 234.98,393.61
             236.22,391.66 236.00,388.27 236.00,386.00
             236.00,386.00 236.00,345.00 236.00,345.00
             236.00,332.12 234.62,322.37 249.00,316.65 Z
           M 396.00,393.00
           C 405.38,371.24 424.81,356.04 449.00,356.00
             458.55,355.99 463.69,355.75 473.00,359.09
             494.00,366.63 511.73,388.23 512.00,411.00
             512.11,420.49 512.53,425.75 509.48,435.00
             502.21,457.08 480.91,475.72 457.00,476.00
             457.00,476.00 448.00,476.00 448.00,476.00
             432.28,475.93 416.48,467.84 406.30,456.00
             403.15,452.34 400.44,448.31 398.27,444.00
             397.02,441.51 395.71,437.55 393.59,435.85
             391.50,434.17 384.93,432.88 382.00,431.98
             374.08,429.52 368.12,427.10 361.00,422.80
             330.47,404.36 311.94,373.83 312.00,338.00
             312.01,331.80 312.19,327.16 316.53,322.18
             323.57,314.11 339.04,313.71 346.53,321.33
             354.54,329.47 351.68,341.18 355.02,352.00
             361.40,372.59 375.75,386.24 396.00,393.00 Z
           M 55.00,397.34
           C 30.85,403.85 39.70,439.15 63.00,435.14
             78.23,432.52 84.87,413.29 73.79,402.21
             68.43,396.85 62.06,396.52 55.00,397.34 Z
           M 447.00,397.34
           C 422.85,403.85 431.70,439.15 455.00,435.14
             470.23,432.52 476.87,413.29 465.79,402.21
             460.43,396.85 454.06,396.52 447.00,397.34 Z
           M 251.00,433.39
           C 227.05,440.59 235.27,476.21 261.00,470.61
             275.09,467.55 279.89,449.55 270.66,439.09
             265.16,432.86 258.73,432.35 251.00,433.39 Z" />
</svg>
