<?xml version="1.0" encoding="UTF-8" standalone="no"?>
<!DOCTYPE svg PUBLIC "-//W3C//DTD SVG 20010904//EN"
              "http://www.w3.org/TR/2001/REC-SVG-20010904/DTD/svg10.dtd">

<svg xmlns="http://www.w3.org/2000/svg"
     width="24" height="24"
     viewBox="0 0 512 512">
<path d="M0 0h24v24H0z" fill="none"/>     
  <path
        d="M 141.00,118.00
           C 141.00,118.00 176.00,99.25 176.00,99.25
             179.48,97.49 188.93,93.19 190.40,89.79
             191.12,88.12 191.00,84.87 191.00,83.00
             191.00,83.00 191.00,41.00 191.00,41.00
             191.01,37.20 190.64,32.57 193.51,29.63
             195.54,27.55 208.52,21.49 212.00,19.75
             212.00,19.75 237.00,7.75 237.00,7.75
             237.00,7.75 252.00,0.64 252.00,0.64
             258.94,-1.30 265.99,3.24 272.00,6.25
             272.00,6.25 306.00,22.75 306.00,22.75
             309.16,24.33 317.32,27.92 319.26,30.39
             321.32,33.00 320.99,36.85 321.00,40.00
             321.00,40.00 321.00,83.00 321.00,83.00
             321.02,94.57 325.19,93.46 336.00,99.31
             336.00,99.31 371.00,118.00 371.00,118.00
             373.82,112.67 379.78,110.85 385.00,108.25
             385.00,108.25 419.00,91.75 419.00,91.75
             423.46,89.52 431.14,84.83 436.00,85.25
             439.79,85.58 446.48,89.00 450.00,90.75
             450.00,90.75 470.00,100.75 470.00,100.75
             470.00,100.75 489.00,110.00 489.00,110.00
             492.05,111.32 497.26,113.29 498.98,116.21
             500.20,118.29 500.00,121.62 500.00,124.00
             500.00,124.00 500.00,183.00 500.00,183.00
             499.99,186.28 500.29,190.00 498.26,192.79
             496.14,195.69 489.38,198.56 486.00,200.25
             486.00,200.25 457.00,214.25 457.00,214.25
             442.29,221.60 442.02,220.34 442.00,230.00
             442.00,230.00 442.00,282.00 442.00,282.00
             442.00,283.94 441.88,287.14 442.60,288.90
             444.32,293.13 453.85,296.62 458.00,298.42
             458.00,298.42 486.00,312.22 486.00,312.22
             489.66,313.95 496.02,316.02 498.40,319.21
             500.29,321.74 499.99,325.02 500.00,328.00
             500.00,328.00 500.00,387.00 500.00,387.00
             500.00,389.70 500.22,393.42 498.83,395.79
             497.19,398.56 492.83,400.34 490.00,401.75
             490.00,401.75 469.00,411.78 469.00,411.78
             469.00,411.78 446.00,423.25 446.00,423.25
             442.42,425.03 438.11,427.69 434.00,427.03
             430.82,426.52 420.51,421.00 417.00,419.25
             417.00,419.25 387.00,404.75 387.00,404.75
             380.40,401.46 374.77,400.63 371.00,394.00
             371.00,394.00 335.00,413.31 335.00,413.31
             322.81,419.90 321.02,418.96 321.00,429.00
             321.00,429.00 321.00,471.00 321.00,471.00
             320.99,474.50 321.25,478.80 319.15,481.79
             316.80,485.13 307.00,489.27 303.00,491.00
             303.00,491.00 272.00,505.86 272.00,505.86
             265.51,508.75 259.47,513.47 252.00,511.37
             252.00,511.37 213.00,492.78 213.00,492.78
             208.02,490.43 197.81,486.57 194.28,482.79
             190.72,478.99 191.01,474.82 191.00,470.00
             191.00,470.00 191.00,429.00 191.00,429.00
             190.98,418.77 190.18,420.92 178.00,414.00
             178.00,414.00 141.00,394.00 141.00,394.00
             138.08,399.53 131.37,401.56 126.00,404.25
             126.00,404.25 92.00,420.75 92.00,420.75
             87.64,422.93 79.78,427.79 75.00,427.03
             72.21,426.59 66.72,423.61 64.00,422.25
             64.00,422.25 43.00,411.78 43.00,411.78
             43.00,411.78 23.00,402.25 23.00,402.25
             19.41,400.44 15.15,398.69 13.17,394.96
             11.79,392.35 12.00,388.89 12.00,386.00
             12.00,386.00 12.00,329.00 12.00,329.00
             12.01,325.72 11.71,322.00 13.74,319.21
             16.24,315.77 23.11,313.48 27.00,311.69
             27.00,311.69 54.00,298.31 54.00,298.31
             66.42,292.60 69.98,293.48 70.00,282.00
             70.00,282.00 70.00,230.00 70.00,230.00
             69.98,220.16 69.59,221.55 54.00,213.75
             54.00,213.75 26.00,200.25 26.00,200.25
             22.59,198.54 15.95,195.78 13.85,192.79
             11.75,189.80 12.01,185.50 12.00,182.00
             12.00,182.00 12.00,126.00 12.00,126.00
             12.01,122.62 11.73,119.03 13.74,116.10
             16.61,111.91 36.17,103.67 42.00,100.75
             42.00,100.75 64.00,89.75 64.00,89.75
             67.78,87.87 72.71,85.13 77.00,85.20
             81.01,85.26 86.35,88.42 90.00,90.25
             90.00,90.25 115.00,102.69 115.00,102.69
             122.10,105.95 137.44,111.28 141.00,118.00 Z
           M 299.00,34.00
           C 299.00,34.00 268.00,18.26 268.00,18.26
             264.50,16.57 257.79,13.03 254.00,13.74
             251.56,14.19 241.87,19.32 239.00,20.75
             239.00,20.75 213.00,34.00 213.00,34.00
             213.00,34.00 243.00,49.25 243.00,49.25
             243.00,49.25 256.00,54.58 256.00,54.58
             256.00,54.58 269.00,49.25 269.00,49.25
             269.00,49.25 299.00,34.00 299.00,34.00 Z
           M 250.00,122.00
           C 250.00,122.00 250.00,75.00 250.00,75.00
             250.00,75.00 248.40,66.63 248.40,66.63
             248.40,66.63 236.00,59.75 236.00,59.75
             236.00,59.75 204.00,45.00 204.00,45.00
             204.00,45.00 204.00,92.00 204.00,92.00
             204.02,101.18 204.02,99.76 218.00,106.75
             218.00,106.75 250.00,122.00 250.00,122.00 Z
           M 308.00,45.00
           C 308.00,45.00 278.00,58.75 278.00,58.75
             278.00,58.75 264.57,65.96 264.57,65.96
             264.57,65.96 263.00,74.00 263.00,74.00
             263.00,74.00 263.00,121.00 263.00,121.00
             263.00,121.00 293.00,107.25 293.00,107.25
             293.00,107.25 306.43,100.04 306.43,100.04
             306.43,100.04 308.00,92.00 308.00,92.00
             308.00,92.00 308.00,45.00 308.00,45.00 Z
           M 120.00,119.00
           C 120.00,119.00 88.00,103.69 88.00,103.69
             84.34,102.01 79.03,98.39 75.00,99.17
             72.82,99.60 63.62,104.44 61.00,105.75
             54.58,108.96 38.16,115.85 34.00,120.00
             34.00,120.00 65.00,135.25 65.00,135.25
             68.53,137.01 74.05,140.60 78.00,139.83
             78.00,139.83 90.00,134.42 90.00,134.42
             96.38,131.64 115.22,122.80 120.00,119.00 Z
           M 479.00,119.00
           C 479.00,119.00 448.00,104.25 448.00,104.25
             444.34,102.42 438.02,98.39 434.00,99.17
             434.00,99.17 421.00,105.14 421.00,105.14
             414.36,108.10 397.08,115.96 392.00,120.00
             392.00,120.00 423.00,134.76 423.00,134.76
             426.69,136.57 432.94,140.62 437.00,139.83
             437.00,139.83 453.00,132.25 453.00,132.25
             460.23,128.66 473.11,123.69 479.00,119.00 Z
           M 191.00,106.97
           C 186.53,107.45 182.98,110.22 179.00,112.24
             179.00,112.24 155.00,125.00 155.00,125.00
             152.60,126.36 144.98,130.07 143.60,131.63
             141.65,133.84 142.01,137.24 142.00,140.00
             142.00,140.00 142.00,178.00 142.00,178.00
             142.02,187.00 141.77,185.59 155.00,192.25
             155.00,192.25 183.00,206.75 183.00,206.75
             183.00,206.75 196.00,212.93 196.00,212.93
             200.70,214.11 208.66,208.89 213.00,206.76
             213.00,206.76 240.00,193.75 240.00,193.75
             243.55,191.98 251.41,187.56 255.00,187.30
             259.76,186.97 267.64,191.57 272.00,193.75
             272.00,193.75 301.00,207.86 301.00,207.86
             303.74,209.08 310.62,212.84 313.00,213.16
             317.35,213.73 325.10,208.42 329.00,206.31
             329.00,206.31 358.00,190.86 358.00,190.86
             360.56,189.44 367.83,186.15 369.40,184.37
             371.35,182.16 370.99,178.76 371.00,176.00
             371.00,176.00 371.00,140.00 371.00,140.00
             371.00,137.87 371.25,134.42 370.01,132.63
             368.79,130.90 364.94,129.23 363.00,128.24
             363.00,128.24 349.00,120.75 349.00,120.75
             349.00,120.75 330.00,110.69 330.00,110.69
             327.57,109.38 323.77,106.66 321.00,106.97
             321.00,106.97 307.00,114.22 307.00,114.22
             307.00,114.22 271.00,131.42 271.00,131.42
             267.18,133.09 258.70,138.17 255.00,137.76
             255.00,137.76 236.00,129.25 236.00,129.25
             236.00,129.25 206.00,114.74 206.00,114.74
             206.00,114.74 191.00,106.97 191.00,106.97 Z
           M 26.00,130.00
           C 26.00,130.00 25.00,146.00 25.00,146.00
             25.00,146.00 25.00,177.00 25.00,177.00
             25.00,177.00 26.60,185.37 26.60,185.37
             26.60,185.37 39.00,192.25 39.00,192.25
             39.00,192.25 70.00,207.00 70.00,207.00
             70.00,207.00 70.00,160.00 70.00,160.00
             70.00,160.00 68.40,151.63 68.40,151.63
             68.40,151.63 53.00,143.58 53.00,143.58
             53.00,143.58 26.00,130.00 26.00,130.00 Z
           M 129.00,130.00
           C 129.00,130.00 98.00,144.75 98.00,144.75
             98.00,144.75 84.60,151.70 84.60,151.70
             84.60,151.70 83.00,160.00 83.00,160.00
             83.00,160.00 83.00,207.00 83.00,207.00
             83.00,207.00 112.00,193.31 112.00,193.31
             112.00,193.31 127.40,185.37 127.40,185.37
             127.40,185.37 129.00,177.00 129.00,177.00
             129.00,177.00 129.00,130.00 129.00,130.00 Z
           M 487.00,130.00
           C 487.00,130.00 459.00,143.69 459.00,143.69
             459.00,143.69 443.60,151.63 443.60,151.63
             443.60,151.63 442.00,160.00 442.00,160.00
             442.00,160.00 442.00,207.00 442.00,207.00
             442.00,207.00 473.00,192.25 473.00,192.25
             473.00,192.25 485.40,185.37 485.40,185.37
             485.40,185.37 487.00,177.00 487.00,177.00
             487.00,177.00 487.00,130.00 487.00,130.00 Z
           M 429.00,207.00
           C 429.00,207.00 429.00,160.00 429.00,160.00
             429.00,160.00 427.40,151.65 427.40,151.65
             427.40,151.65 415.00,145.25 415.00,145.25
             415.00,145.25 384.00,131.00 384.00,131.00
             384.00,131.00 384.00,178.00 384.00,178.00
             384.00,178.00 385.57,186.04 385.57,186.04
             385.57,186.04 401.00,193.86 401.00,193.86
             401.00,193.86 429.00,207.00 429.00,207.00 Z
           M 375.00,196.60
           C 370.60,197.63 367.01,200.20 363.00,202.24
             363.00,202.24 338.00,215.58 338.00,215.58
             334.66,217.46 325.49,221.71 323.31,223.79
             320.56,226.42 321.01,229.50 321.00,233.00
             321.00,233.00 321.00,279.00 321.00,279.00
             321.00,281.38 320.80,284.71 322.02,286.79
             323.69,289.61 329.06,291.74 332.00,293.26
             332.00,293.26 354.00,305.22 354.00,305.22
             358.70,307.70 372.58,316.03 377.00,315.51
             379.96,315.16 387.86,310.78 391.00,309.26
             391.00,309.26 418.00,296.25 418.00,296.25
             420.47,295.02 426.61,292.65 427.98,290.59
             429.22,288.70 429.00,285.22 429.00,283.00
             429.00,283.00 429.00,229.00 429.00,229.00
             429.00,226.36 429.41,223.00 427.43,220.96
             425.50,218.98 412.27,213.00 409.00,211.58
             400.59,207.91 382.87,197.19 375.00,196.60 Z
           M 133.00,197.43
           C 133.00,197.43 105.00,210.58 105.00,210.58
             101.57,212.07 86.51,218.97 84.57,220.96
             82.59,223.00 83.00,226.36 83.00,229.00
             83.00,229.00 83.00,283.00 83.00,283.00
             83.00,285.26 82.78,288.68 84.02,290.61
             85.55,292.99 90.40,294.55 93.00,295.78
             93.00,295.78 113.00,305.75 113.00,305.75
             117.13,307.81 132.30,315.64 136.00,315.16
             138.71,314.80 149.13,309.20 152.00,307.58
             152.00,307.58 178.00,294.24 178.00,294.24
             180.77,292.84 188.46,289.01 189.98,286.61
             191.22,284.65 191.00,281.28 191.00,279.00
             191.00,279.00 191.00,233.00 191.00,233.00
             190.99,229.63 191.47,226.39 188.69,223.96
             188.69,223.96 175.00,216.75 175.00,216.75
             175.00,216.75 150.00,203.75 150.00,203.75
             144.66,201.08 139.13,197.19 133.00,197.43 Z
           M 299.00,221.00
           C 299.00,221.00 270.00,206.74 270.00,206.74
             270.00,206.74 256.00,200.78 256.00,200.78
             256.00,200.78 242.00,206.75 242.00,206.75
             242.00,206.75 213.00,221.00 213.00,221.00
             213.00,221.00 242.00,235.75 242.00,235.75
             242.00,235.75 256.00,241.58 256.00,241.58
             256.00,241.58 270.00,235.75 270.00,235.75
             270.00,235.75 299.00,221.00 299.00,221.00 Z
           M 205.00,232.00
           C 205.00,232.00 204.00,248.00 204.00,248.00
             204.00,248.00 204.00,279.00 204.00,279.00
             204.00,279.00 205.60,287.37 205.60,287.37
             205.60,287.37 221.00,295.31 221.00,295.31
             221.00,295.31 250.00,309.00 250.00,309.00
             250.00,309.00 250.00,262.00 250.00,262.00
             249.98,251.25 248.55,253.42 236.00,247.24
             236.00,247.24 205.00,232.00 205.00,232.00 Z
           M 308.00,232.00
           C 308.00,232.00 279.00,245.74 279.00,245.74
             279.00,245.74 264.57,252.96 264.57,252.96
             264.57,252.96 263.00,261.00 263.00,261.00
             263.00,261.00 263.00,309.00 263.00,309.00
             263.00,309.00 293.00,294.25 293.00,294.25
             293.00,294.25 306.40,287.36 306.40,287.36
             306.40,287.36 308.00,279.00 308.00,279.00
             308.00,279.00 308.00,232.00 308.00,232.00 Z
           M 198.00,298.78
           C 191.52,299.83 170.45,312.03 163.00,315.75
             159.31,317.60 146.63,323.58 144.31,325.79
             141.56,328.42 142.01,331.50 142.00,335.00
             142.00,335.00 142.00,372.00 142.00,372.00
             142.00,373.88 141.88,377.11 142.60,378.79
             144.31,382.77 157.70,388.56 162.00,391.00
             162.00,391.00 182.00,401.74 182.00,401.74
             184.33,402.94 188.41,405.30 191.00,405.06
             192.80,404.88 203.44,399.03 206.00,397.75
             206.00,397.75 242.00,380.00 242.00,380.00
             245.90,378.31 253.09,374.03 257.00,374.49
             260.04,374.85 269.68,380.10 273.00,381.75
             273.00,381.75 305.00,397.25 305.00,397.25
             308.28,398.89 319.17,405.25 322.00,405.07
             324.91,404.88 332.06,400.33 335.00,398.78
             335.00,398.78 360.00,385.31 360.00,385.31
             362.38,384.02 368.64,381.33 370.01,379.37
             371.25,377.58 371.00,374.13 371.00,372.00
             371.00,372.00 371.00,335.00 371.00,335.00
             370.95,325.89 366.78,325.68 359.00,321.75
             359.00,321.75 337.00,310.00 337.00,310.00
             337.00,310.00 315.00,298.86 315.00,298.86
             313.46,298.63 312.44,298.90 311.00,299.39
             311.00,299.39 272.00,318.25 272.00,318.25
             268.63,319.93 259.23,325.22 256.00,325.22
             252.77,325.22 243.37,319.93 240.00,318.25
             240.00,318.25 214.00,305.75 214.00,305.75
             209.12,303.31 203.31,299.64 198.00,298.78 Z
           M 119.00,322.00
           C 119.00,322.00 88.00,307.14 88.00,307.14
             84.27,305.48 79.07,301.98 75.00,302.74
             72.57,303.19 62.87,308.32 60.00,309.75
             60.00,309.75 34.00,322.00 34.00,322.00
             34.00,322.00 34.00,324.00 34.00,324.00
             34.00,324.00 64.00,338.25 64.00,338.25
             67.73,340.11 73.85,344.04 78.00,343.26
             80.31,342.83 86.43,339.49 89.00,338.31
             89.00,338.31 119.00,324.00 119.00,324.00
             119.00,324.00 119.00,322.00 119.00,322.00 Z
           M 478.00,322.00
           C 478.00,322.00 448.00,307.75 448.00,307.75
             444.27,305.89 438.15,301.96 434.00,302.74
             431.56,303.19 423.87,307.38 421.00,308.69
             421.00,308.69 393.00,322.00 393.00,322.00
             393.00,322.00 393.00,324.00 393.00,324.00
             393.00,324.00 423.00,338.25 423.00,338.25
             426.75,340.11 432.84,344.04 437.00,343.26
             439.44,342.81 449.13,337.68 452.00,336.25
             452.00,336.25 478.00,324.00 478.00,324.00
             478.00,324.00 478.00,322.00 478.00,322.00 Z
           M 70.00,411.00
           C 70.00,411.00 70.00,363.00 70.00,363.00
             70.00,363.00 68.43,354.96 68.43,354.96
             68.43,354.96 52.00,346.58 52.00,346.58
             52.00,346.58 25.00,334.00 25.00,334.00
             25.00,334.00 25.00,381.00 25.00,381.00
             25.00,381.00 26.57,389.04 26.57,389.04
             26.57,389.04 40.00,396.25 40.00,396.25
             40.00,396.25 70.00,411.00 70.00,411.00 Z
           M 129.00,334.00
           C 129.00,334.00 97.00,348.75 97.00,348.75
             97.00,348.75 84.60,355.41 84.60,355.41
             84.60,355.41 83.00,364.00 83.00,364.00
             83.00,364.00 83.00,411.00 83.00,411.00
             83.00,411.00 109.00,398.42 109.00,398.42
             109.00,398.42 127.43,389.04 127.43,389.04
             127.43,389.04 129.00,381.00 129.00,381.00
             129.00,381.00 129.00,334.00 129.00,334.00 Z
           M 385.00,334.00
           C 385.00,334.00 384.00,350.00 384.00,350.00
             384.00,350.00 384.00,381.00 384.00,381.00
             384.00,381.00 385.60,389.37 385.60,389.37
             385.60,389.37 398.00,396.24 398.00,396.24
             398.00,396.24 429.00,411.00 429.00,411.00
             429.00,411.00 429.00,363.00 429.00,363.00
             428.98,353.15 428.50,355.48 416.00,349.25
             416.00,349.25 385.00,334.00 385.00,334.00 Z
           M 487.00,334.00
           C 487.00,334.00 458.00,347.69 458.00,347.69
             458.00,347.69 443.57,354.96 443.57,354.96
             443.57,354.96 442.00,363.00 442.00,363.00
             442.00,363.00 442.00,411.00 442.00,411.00
             442.00,411.00 472.00,396.25 472.00,396.25
             472.00,396.25 485.43,389.04 485.43,389.04
             485.43,389.04 487.00,381.00 487.00,381.00
             487.00,381.00 487.00,334.00 487.00,334.00 Z
           M 300.00,408.00
           C 300.00,408.00 272.00,394.75 272.00,394.75
             268.93,393.22 259.94,388.69 257.00,388.16
             253.10,387.46 248.43,390.53 245.00,392.25
             245.00,392.25 224.00,402.74 224.00,402.74
             219.41,404.96 216.72,405.32 213.00,409.00
             213.00,409.00 240.00,422.25 240.00,422.25
             243.55,424.02 251.41,428.44 255.00,428.70
             259.33,429.00 265.16,425.67 269.00,423.75
             269.00,423.75 300.00,408.00 300.00,408.00 Z
           M 205.00,419.00
           C 205.00,419.00 204.00,435.00 204.00,435.00
             204.00,435.00 204.00,466.00 204.00,466.00
             204.00,466.00 205.60,474.37 205.60,474.37
             205.60,474.37 218.00,481.25 218.00,481.25
             218.00,481.25 250.00,496.00 250.00,496.00
             250.00,496.00 250.00,449.00 250.00,449.00
             249.98,440.05 250.20,441.36 237.00,434.75
             237.00,434.75 205.00,419.00 205.00,419.00 Z
           M 308.00,419.00
           C 308.00,419.00 277.00,433.75 277.00,433.75
             277.00,433.75 264.60,440.63 264.60,440.63
             264.60,440.63 263.00,449.00 263.00,449.00
             263.00,449.00 263.00,496.00 263.00,496.00
             263.00,496.00 294.00,481.24 294.00,481.24
             294.00,481.24 306.40,474.37 306.40,474.37
             306.40,474.37 308.00,466.00 308.00,466.00
             308.00,466.00 308.00,419.00 308.00,419.00 Z" />
</svg>
