<?xml version="1.0" encoding="UTF-8" standalone="no"?>
<!DOCTYPE svg PUBLIC "-//W3C//DTD SVG 20010904//EN"
              "http://www.w3.org/TR/2001/REC-SVG-20010904/DTD/svg10.dtd">

<svg xmlns="http://www.w3.org/2000/svg"
     width="24" height="24"
     viewBox="0 0 512 512">
     <path d="M0 0h24v24H0z" fill="none"/>     
  <path 
        d="M 14.00,0.53
           C 30.56,-2.20 39.97,5.02 40.00,22.00
             40.00,22.00 40.00,117.00 40.00,117.00
             40.00,117.00 40.00,404.00 40.00,404.00
             40.02,414.99 41.63,426.97 46.32,437.00
             49.33,443.42 53.05,448.01 58.00,453.00
             72.38,467.49 88.01,471.97 108.00,472.00
             108.00,472.00 490.00,472.00 490.00,472.00
             495.42,472.01 499.22,471.98 503.96,475.13
             514.38,482.06 514.80,499.18 505.70,507.32
             500.57,511.91 496.46,511.99 490.00,512.00
             490.00,512.00 94.00,512.00 94.00,512.00
             45.52,511.92 0.08,466.48 0.00,418.00
             0.00,418.00 0.00,101.00 0.00,101.00
             0.00,101.00 0.00,20.00 0.00,20.00
             0.13,9.86 4.10,3.62 14.00,0.53 Z
           M 133.00,0.65
           C 148.73,-2.58 159.97,4.20 160.00,21.00
             160.00,21.00 160.00,138.00 160.00,138.00
             159.99,144.46 159.91,148.57 155.32,153.70
             147.18,162.80 130.06,162.38 123.13,151.96
             119.98,147.22 120.01,143.42 120.00,138.00
             120.00,138.00 120.00,37.00 120.00,37.00
             120.00,22.72 116.71,7.13 133.00,0.65 Z
           M 289.00,0.65
           C 304.73,-2.58 315.97,4.20 316.00,21.00
             316.00,21.00 316.00,98.00 316.00,98.00
             315.99,104.46 315.91,108.57 311.32,113.70
             303.18,122.80 286.06,122.38 279.13,111.96
             275.98,107.22 276.01,103.42 276.00,98.00
             276.00,98.00 276.00,20.00 276.00,20.00
             276.12,10.18 279.72,4.34 289.00,0.65 Z
           M 445.00,0.65
           C 447.08,0.22 447.85,0.07 450.00,0.02
             452.91,-0.07 456.21,-0.04 459.00,0.80
             464.77,2.54 469.60,7.19 471.35,13.00
             471.35,13.00 472.00,48.00 472.00,48.00
             472.00,60.21 473.92,74.59 459.00,79.20
             448.59,82.42 436.10,77.94 432.80,67.00
             431.64,63.15 432.00,55.31 432.00,51.00
             432.00,51.00 432.00,22.00 432.00,22.00
             432.02,11.27 434.35,4.89 445.00,0.65 Z
           M 441.00,120.23
           C 445.65,119.82 450.32,119.99 455.00,120.23
             462.35,120.01 469.25,121.29 476.00,124.31
             481.03,126.56 486.78,129.80 491.00,133.32
             502.64,143.03 511.82,159.63 512.00,175.00
             512.00,175.00 512.00,192.00 512.00,192.00
             512.00,192.00 512.00,223.00 512.00,223.00
             511.98,238.31 505.08,253.37 493.99,263.91
             490.54,267.18 486.16,270.39 482.00,272.69
             479.48,274.08 474.51,276.05 473.02,278.39
             471.78,280.34 472.00,283.73 472.00,286.00
             472.00,286.00 472.00,410.00 472.00,410.00
             471.99,416.46 471.91,420.57 467.32,425.70
             458.72,435.30 441.37,434.08 434.61,422.99
             431.87,418.49 432.01,415.02 432.00,410.00
             432.00,410.00 432.00,286.00 432.00,286.00
             432.00,283.73 432.22,280.34 430.98,278.39
             429.64,276.28 419.27,271.23 416.00,268.84
             408.64,263.47 403.05,257.04 398.78,249.00
             390.02,232.50 392.00,220.82 392.00,203.00
             392.00,203.00 392.00,177.00 392.00,177.00
             392.05,147.99 413.58,126.39 441.00,120.23 Z
           M 285.00,160.23
           C 289.65,159.82 294.32,159.99 299.00,160.23
             306.35,160.01 313.25,161.29 320.00,164.31
             325.03,166.56 330.78,169.80 335.00,173.32
             346.64,183.03 355.82,199.63 356.00,215.00
             356.00,215.00 356.00,232.00 356.00,232.00
             356.00,232.00 356.00,263.00 356.00,263.00
             355.98,278.31 349.08,293.37 337.99,303.91
             334.54,307.18 330.16,310.39 326.00,312.69
             323.48,314.08 318.51,316.05 317.02,318.39
             315.78,320.34 316.00,323.73 316.00,326.00
             316.00,326.00 316.00,410.00 316.00,410.00
             315.99,416.46 315.91,420.57 311.32,425.70
             302.72,435.30 285.37,434.08 278.61,422.99
             275.87,418.49 276.01,415.02 276.00,410.00
             276.00,410.00 276.00,326.00 276.00,326.00
             276.00,323.73 276.22,320.34 274.98,318.39
             273.64,316.28 263.27,311.23 260.00,308.84
             252.64,303.47 247.05,297.04 242.78,289.00
             234.02,272.50 236.00,260.82 236.00,243.00
             236.00,243.00 236.00,217.00 236.00,217.00
             236.05,187.99 257.58,166.39 285.00,160.23 Z
           M 447.00,161.30
           C 440.93,163.21 436.97,166.03 434.36,172.00
             432.70,175.81 432.05,181.83 432.00,186.00
             431.90,195.27 431.17,218.19 433.62,226.00
             436.82,236.20 446.88,240.81 457.00,238.61
             468.94,236.01 471.87,224.60 472.00,214.00
             472.00,214.00 472.00,203.00 472.00,203.00
             472.00,188.95 475.19,164.14 456.00,161.30
             453.03,160.76 449.95,160.99 447.00,161.30 Z
           M 129.00,200.23
           C 133.65,199.82 138.32,199.99 143.00,200.23
             150.35,200.01 157.25,201.29 164.00,204.31
             169.03,206.56 174.78,209.80 179.00,213.32
             190.64,223.03 199.82,239.63 200.00,255.00
             200.00,255.00 200.00,272.00 200.00,272.00
             200.00,272.00 200.00,303.00 200.00,303.00
             199.98,318.31 193.08,333.37 181.99,343.91
             178.54,347.18 174.16,350.39 170.00,352.69
             167.48,354.08 162.51,356.05 161.02,358.39
             159.78,360.34 160.00,363.73 160.00,366.00
             160.00,366.00 160.00,410.00 160.00,410.00
             159.99,416.46 159.91,420.57 155.32,425.70
             146.72,435.30 129.37,434.08 122.61,422.99
             119.87,418.49 120.01,415.02 120.00,410.00
             120.00,410.00 120.00,366.00 120.00,366.00
             120.00,363.73 120.22,360.34 118.98,358.39
             117.64,356.28 107.27,351.23 104.00,348.84
             96.64,343.47 91.05,337.04 86.78,329.00
             78.02,312.50 80.00,300.82 80.00,283.00
             80.00,283.00 80.00,257.00 80.00,257.00
             80.05,227.99 101.58,206.39 129.00,200.23 Z
           M 291.00,201.30
           C 284.93,203.21 280.97,206.03 278.36,212.00
             276.70,215.81 276.05,221.83 276.00,226.00
             275.90,235.27 275.17,258.19 277.62,266.00
             280.82,276.20 290.88,280.81 301.00,278.61
             312.94,276.01 315.87,264.60 316.00,254.00
             316.00,254.00 316.00,243.00 316.00,243.00
             316.00,228.95 319.19,204.14 300.00,201.30
             297.03,200.76 293.95,200.99 291.00,201.30 Z
           M 135.00,241.30
           C 128.93,243.21 124.97,246.03 122.36,252.00
             120.70,255.81 120.05,261.83 120.00,266.00
             119.90,275.27 119.17,298.19 121.62,306.00
             124.82,316.20 134.88,320.81 145.00,318.61
             156.94,316.01 159.87,304.60 160.00,294.00
             160.00,294.00 160.00,283.00 160.00,283.00
             160.00,268.95 163.19,244.14 144.00,241.30
             141.03,240.76 137.95,240.99 135.00,241.30 Z" />
</svg>
