<?xml version="1.0" encoding="UTF-8" standalone="no"?>
<!DOCTYPE svg PUBLIC "-//W3C//DTD SVG 20010904//EN"
              "http://www.w3.org/TR/2001/REC-SVG-20010904/DTD/svg10.dtd">

<svg xmlns="http://www.w3.org/2000/svg"
     width="24" height="24"
     viewBox="0 0 512 512">
<path d="M0 0h24v24H0z" fill="none"/>     
<path
        d="M 152.00,167.00
           C 152.00,167.00 152.00,73.00 152.00,73.00
             152.00,70.61 151.79,67.31 153.02,65.21
             155.08,61.69 170.63,53.66 175.00,51.15
             175.00,51.15 228.00,20.58 228.00,20.58
             228.00,20.58 253.00,6.38 253.00,6.38
             254.80,5.68 256.07,5.36 258.00,5.80
             260.81,6.44 276.41,15.88 280.00,17.99
             280.00,17.99 341.00,53.15 341.00,53.15
             344.84,55.34 357.90,61.86 359.43,65.33
             360.14,66.93 360.00,70.19 360.00,72.00
             360.00,72.00 360.00,167.00 360.00,167.00
             360.00,167.00 344.00,167.00 344.00,167.00
             344.00,167.00 344.00,82.00 344.00,82.00
             344.00,80.09 344.12,76.90 343.40,75.18
             341.84,71.47 330.83,66.20 327.00,64.00
             327.00,64.00 277.00,35.15 277.00,35.15
             272.99,32.85 259.81,24.19 256.00,24.33
             252.65,24.46 243.34,30.64 240.00,32.58
             240.00,32.58 205.00,52.72 205.00,52.72
             205.00,52.72 180.00,67.15 180.00,67.15
             177.41,68.63 170.46,72.12 169.02,74.39
             167.78,76.35 168.00,79.72 168.00,82.00
             168.00,82.00 168.00,167.00 168.00,167.00
             168.00,167.00 152.00,167.00 152.00,167.00 Z
           M 252.00,54.00
           C 250.49,51.48 246.05,44.68 245.95,42.04
             245.75,36.97 254.92,33.63 259.00,35.01
             259.00,35.01 275.00,44.00 275.00,44.00
             275.00,44.00 306.00,62.00 306.00,62.00
             306.00,62.00 299.00,76.00 299.00,76.00
             299.00,76.00 268.00,58.85 268.00,58.85
             261.98,55.41 258.97,51.88 252.00,54.00 Z
           M 223.00,52.00
           C 223.00,52.00 237.00,45.00 237.00,45.00
             237.00,45.00 244.00,59.00 244.00,59.00
             244.00,59.00 230.00,66.00 230.00,66.00
             230.00,66.00 223.00,52.00 223.00,52.00 Z
           M 201.00,65.00
           C 201.00,65.00 215.00,58.00 215.00,58.00
             215.00,58.00 222.00,72.00 222.00,72.00
             219.49,73.34 212.48,77.93 210.10,77.76
             206.20,77.46 202.41,68.25 201.00,65.00 Z
           M 183.00,74.00
           C 189.72,75.36 196.08,80.14 202.00,83.58
             202.00,83.58 237.00,103.72 237.00,103.72
             240.66,105.80 252.65,113.54 256.00,113.67
             259.56,113.80 272.17,105.62 276.00,103.42
             276.00,103.42 308.00,84.99 308.00,84.99
             314.17,81.36 322.29,75.92 329.00,74.00
             329.00,74.00 336.00,88.00 336.00,88.00
             336.00,88.00 281.00,119.42 281.00,119.42
             276.99,121.75 266.19,127.12 264.60,131.09
             263.88,132.88 264.00,136.03 264.00,138.00
             264.00,138.00 264.00,212.00 264.00,212.00
             264.00,212.00 248.00,212.00 248.00,212.00
             248.00,212.00 248.00,137.00 248.00,137.00
             248.00,135.13 248.12,131.88 247.40,130.21
             245.93,126.81 233.69,120.69 230.00,118.58
             230.00,118.58 195.00,98.42 195.00,98.42
             189.31,95.16 180.17,90.73 176.00,86.00
             176.00,86.00 183.00,74.00 183.00,74.00 Z
           M 201.00,148.00
           C 201.00,148.00 215.00,155.00 215.00,155.00
             213.27,160.91 208.83,167.53 205.72,173.00
             204.45,175.24 201.62,179.54 201.53,182.00
             201.42,184.68 203.71,187.58 204.86,190.00
             206.37,193.17 207.55,197.49 207.82,201.00
             208.57,210.95 201.35,223.01 195.91,231.00
             191.00,238.20 185.49,242.12 177.00,243.98
             169.70,245.59 165.16,243.47 163.66,246.88
             162.67,249.12 165.08,252.09 166.13,254.00
             168.53,258.37 169.76,261.99 169.96,267.00
             170.39,277.62 163.59,289.52 157.56,298.00
             150.83,307.47 143.18,310.13 132.00,310.39
             126.37,310.52 125.29,313.53 122.72,318.00
             122.72,318.00 112.00,337.00 112.00,337.00
             112.00,337.00 98.00,330.00 98.00,330.00
             99.73,324.09 104.17,317.47 107.28,312.00
             108.56,309.74 111.36,305.46 111.53,303.00
             111.85,298.40 107.14,296.63 105.44,285.00
             103.92,274.61 112.35,260.28 118.22,252.01
             122.72,245.67 128.47,242.28 136.00,240.67
             141.94,239.40 147.25,241.14 148.96,237.77
             150.27,235.19 147.69,232.18 146.52,230.00
             144.27,225.79 143.03,220.78 143.03,216.00
             143.03,208.28 146.28,202.51 150.00,196.00
             152.29,191.99 155.28,186.45 158.32,183.09
             165.14,175.58 176.31,172.64 186.00,175.00
             186.00,175.00 201.00,148.00 201.00,148.00 Z
           M 297.00,155.00
           C 297.00,155.00 311.00,148.00 311.00,148.00
             311.00,148.00 326.00,175.00 326.00,175.00
             344.54,171.68 353.11,179.69 361.85,195.00
             367.18,204.34 369.27,207.00 368.99,218.00
             368.63,231.96 361.10,231.44 364.00,241.00
             374.57,238.43 385.53,241.61 392.67,250.02
             395.35,253.17 398.04,258.30 400.15,262.00
             404.08,268.88 406.97,273.75 406.97,282.00
             406.97,285.89 406.04,290.44 404.47,294.00
             403.22,296.84 400.47,299.95 400.77,303.00
             401.05,305.77 408.97,318.62 410.85,322.00
             412.59,325.13 414.82,328.06 411.67,331.10
             409.56,333.13 403.28,336.95 400.39,335.19
             398.17,333.84 390.98,320.15 389.15,317.00
             387.65,314.41 386.13,311.07 382.90,310.48
             381.17,310.16 379.37,311.10 373.00,309.90
             364.24,308.26 358.17,303.48 353.46,296.00
             348.52,288.15 341.35,276.53 342.30,267.00
             342.71,262.83 343.71,258.73 345.64,255.00
             346.80,252.77 349.31,249.77 348.39,247.16
             347.95,245.93 347.01,245.24 345.81,244.88
             344.08,244.37 339.90,245.69 332.00,243.23
             322.35,240.22 318.23,234.28 313.42,226.00
             307.50,215.79 302.88,208.34 305.52,196.00
             307.12,188.48 310.90,185.52 310.85,182.00
             310.81,179.54 307.99,175.24 306.72,173.00
             306.72,173.00 297.00,155.00 297.00,155.00 Z
           M 177.00,190.00
           C 174.60,190.97 173.12,191.50 171.10,193.27
             167.68,196.29 160.60,208.50 159.53,213.00
             158.98,215.30 159.02,217.66 159.00,220.00
             159.00,220.00 163.00,214.00 163.00,214.00
             166.39,215.24 175.44,218.98 175.60,223.09
             175.65,224.49 174.55,226.70 174.00,228.00
             176.50,227.47 177.74,227.30 179.82,225.57
             183.03,222.90 190.83,209.18 191.60,205.00
             192.06,202.47 191.65,201.36 191.00,199.00
             184.22,206.52 185.44,203.39 173.00,198.00
             173.00,198.00 177.00,190.00 177.00,190.00 Z
           M 336.00,190.00
           C 336.00,190.00 335.00,190.00 335.00,190.00
             335.00,190.00 336.00,191.00 336.00,191.00
             336.00,191.00 336.00,190.00 336.00,190.00 Z
           M 353.00,221.00
           C 353.00,218.21 353.13,214.67 352.45,212.00
             351.38,207.84 344.20,195.14 340.82,192.74
             339.08,191.51 337.96,191.42 336.00,191.00
             336.00,191.00 339.00,198.00 339.00,198.00
             339.00,198.00 325.00,205.00 325.00,205.00
             325.00,205.00 321.19,198.00 321.19,198.00
             321.00,200.39 320.90,203.73 321.19,206.00
             322.25,209.99 329.33,222.83 332.33,225.43
             334.32,227.16 335.56,227.39 338.00,228.00
             338.00,228.00 335.00,221.00 335.00,221.00
             335.00,221.00 349.00,214.00 349.00,214.00
             349.00,214.00 353.00,221.00 353.00,221.00 Z
           M 222.00,206.00
           C 222.00,206.00 246.00,219.58 246.00,219.58
             246.00,219.58 256.42,224.62 256.42,224.62
             256.42,224.62 267.00,219.28 267.00,219.28
             267.00,219.28 291.00,206.00 291.00,206.00
             291.00,206.00 298.00,220.00 298.00,220.00
             298.00,220.00 269.00,237.00 269.00,237.00
             269.00,237.00 256.00,243.19 256.00,243.19
             256.00,243.19 243.00,236.72 243.00,236.72
             243.00,236.72 214.00,220.00 214.00,220.00
             214.00,220.00 222.00,206.00 222.00,206.00 Z
           M 139.00,256.00
           C 136.77,257.02 135.06,257.72 133.18,259.39
             129.62,262.55 121.92,276.20 121.37,281.00
             121.12,283.20 121.47,283.97 122.00,286.00
             128.78,278.48 127.56,281.61 140.00,287.00
             140.00,287.00 136.00,294.00 136.00,294.00
             138.54,293.46 139.77,293.28 141.90,291.57
             145.13,288.97 152.69,276.10 153.61,272.00
             154.25,269.12 154.07,266.69 153.00,264.00
             153.00,264.00 150.00,271.00 150.00,271.00
             146.99,269.70 138.41,266.00 137.51,262.79
             137.06,261.16 138.50,257.72 139.00,256.00 Z
           M 374.00,256.00
           C 374.00,256.00 377.00,264.00 377.00,264.00
             377.00,264.00 363.00,271.00 363.00,271.00
             363.00,271.00 359.00,265.00 359.00,265.00
             358.47,267.03 358.12,267.80 358.37,270.00
             358.88,274.46 366.81,288.59 370.21,291.43
             372.24,293.13 373.55,293.39 376.00,294.00
             375.34,292.29 374.19,289.97 374.65,288.10
             375.54,284.54 383.72,281.03 387.00,280.00
             387.00,280.00 391.00,286.00 391.00,286.00
             390.99,283.33 391.11,280.60 390.36,278.00
             389.29,274.25 382.27,262.24 379.48,259.53
             377.68,257.78 376.18,257.10 374.00,256.00 Z
           M 199.00,452.00
           C 199.00,452.00 133.00,490.01 133.00,490.01
             133.00,490.01 114.00,501.01 114.00,501.01
             111.50,502.48 106.73,505.74 104.00,505.97
             100.34,506.27 94.21,501.89 91.00,500.01
             91.00,500.01 62.00,483.28 62.00,483.28
             62.00,483.28 16.00,456.72 16.00,456.72
             0.08,447.66 0.02,449.25 0.00,440.00
             0.00,440.00 0.00,335.00 0.00,335.00
             0.00,333.09 -0.12,329.90 0.60,328.18
             2.08,324.67 13.29,318.98 17.00,316.85
             17.00,316.85 67.00,288.00 67.00,288.00
             67.00,288.00 81.00,279.99 81.00,279.99
             82.76,278.97 85.95,276.86 87.96,276.81
             92.90,276.68 96.26,286.08 97.00,290.00
             97.00,290.00 67.00,306.99 67.00,306.99
             67.00,306.99 34.00,326.00 34.00,326.00
             30.09,328.25 17.13,334.63 15.60,338.21
             14.88,339.89 15.00,343.12 15.00,345.00
             15.00,345.00 15.00,429.00 15.00,429.00
             15.02,438.86 15.68,437.50 29.00,445.40
             29.00,445.40 68.00,467.85 68.00,467.85
             68.00,467.85 92.00,481.72 92.00,481.72
             94.56,483.17 100.36,486.98 103.00,487.11
             105.68,487.25 108.73,485.14 111.00,483.85
             111.00,483.85 128.00,474.01 128.00,474.01
             128.00,474.01 167.00,451.58 167.00,451.58
             173.44,447.84 185.49,440.06 192.00,438.00
             192.00,438.00 199.00,452.00 199.00,452.00 Z
           M 422.00,276.00
           C 428.87,278.52 440.15,285.82 447.00,289.72
             447.00,289.72 492.00,315.60 492.00,315.60
             495.49,317.67 509.39,325.04 511.01,327.53
             512.24,329.43 512.00,332.77 512.00,335.00
             512.00,335.00 512.00,440.00 512.00,440.00
             511.98,449.70 511.60,448.39 496.00,457.28
             496.00,457.28 450.00,483.85 450.00,483.85
             450.00,483.85 422.00,500.01 422.00,500.01
             418.91,501.82 412.37,506.22 409.00,506.39
             406.03,506.54 402.54,504.16 400.00,502.72
             400.00,502.72 383.00,492.85 383.00,492.85
             383.00,492.85 339.00,467.58 339.00,467.58
             339.00,467.58 315.00,454.00 315.00,454.00
             315.49,451.44 315.70,450.38 316.90,448.00
             317.91,446.01 320.10,442.09 322.21,441.23
             324.47,440.31 327.05,441.82 329.00,442.87
             329.00,442.87 343.00,450.85 343.00,450.85
             343.00,450.85 391.00,478.58 391.00,478.58
             395.09,480.92 405.72,488.35 410.00,487.54
             410.00,487.54 433.00,474.80 433.00,474.80
             433.00,474.80 479.00,448.20 479.00,448.20
             483.40,445.58 494.64,440.47 496.40,435.96
             497.11,434.13 497.00,431.00 497.00,429.00
             497.00,429.00 497.00,346.00 497.00,346.00
             497.00,343.61 497.21,340.31 495.98,338.21
             494.22,335.20 480.76,328.01 477.00,325.85
             477.00,325.85 415.00,290.00 415.00,290.00
             415.00,290.00 422.00,276.00 422.00,276.00 Z
           M 166.00,304.00
           C 166.00,304.00 194.00,319.40 194.00,319.40
             194.00,319.40 205.40,326.61 205.40,326.61
             205.40,326.61 207.00,335.00 207.00,335.00
             207.00,335.00 207.00,371.00 207.00,371.00
             207.00,371.00 191.00,371.00 191.00,371.00
             191.00,371.00 191.00,345.00 191.00,345.00
             191.00,342.62 191.21,339.30 189.98,337.21
             188.16,334.13 172.98,326.12 169.00,323.85
             166.55,322.45 160.48,319.63 159.82,316.79
             159.11,313.74 164.28,306.64 166.00,304.00 Z
           M 305.00,369.00
           C 305.00,369.00 305.00,335.00 305.00,335.00
             305.00,335.00 305.99,327.63 305.99,327.63
             305.99,327.63 318.00,319.99 318.00,319.99
             318.00,319.99 347.00,304.00 347.00,304.00
             347.00,304.00 354.00,318.00 354.00,318.00
             354.00,318.00 331.00,331.40 331.00,331.40
             331.00,331.40 322.02,338.10 322.02,338.10
             322.02,338.10 321.00,345.00 321.00,345.00
             321.00,345.00 321.00,369.00 321.00,369.00
             321.00,369.00 305.00,369.00 305.00,369.00 Z
           M 30.00,337.00
           C 36.58,338.25 43.14,342.95 49.00,346.28
             49.00,346.28 84.00,366.42 84.00,366.42
             87.29,368.34 100.57,376.83 103.42,376.77
             106.27,376.71 118.74,368.72 122.00,366.85
             122.00,366.85 168.00,340.28 168.00,340.28
             169.77,339.30 172.74,337.45 174.82,337.87
             178.67,338.64 182.18,347.55 183.00,351.00
             183.00,351.00 128.00,382.40 128.00,382.40
             112.58,391.53 111.02,389.92 111.00,401.00
             111.00,401.00 111.00,475.00 111.00,475.00
             111.00,475.00 95.00,475.00 95.00,475.00
             95.00,475.00 95.00,400.00 95.00,400.00
             94.98,389.77 94.62,391.75 78.00,381.99
             78.00,381.99 24.00,351.00 24.00,351.00
             24.00,351.00 30.00,337.00 30.00,337.00 Z
           M 336.00,337.00
           C 342.26,339.30 351.94,345.43 358.00,348.99
             358.00,348.99 388.00,366.28 388.00,366.28
             391.96,368.53 405.31,377.11 409.00,376.95
             412.54,376.79 426.10,368.09 430.00,365.85
             430.00,365.85 481.00,337.00 481.00,337.00
             488.44,348.43 489.58,350.21 482.00,354.72
             482.00,354.72 433.00,383.01 433.00,383.01
             418.09,391.77 417.02,390.68 417.00,401.00
             417.00,401.00 417.00,458.00 417.00,458.00
             417.00,461.39 417.90,473.00 415.40,474.98
             413.92,476.15 410.82,475.99 409.00,476.00
             409.00,476.00 401.00,476.00 401.00,476.00
             401.00,476.00 401.00,401.00 401.00,401.00
             401.00,399.09 401.12,395.90 400.40,394.18
             398.74,390.23 387.05,384.58 383.00,382.28
             383.00,382.28 329.00,351.00 329.00,351.00
             329.00,351.00 336.00,337.00 336.00,337.00 Z
           M 25.00,366.00
           C 25.00,366.00 40.00,366.00 40.00,366.00
             40.00,366.00 40.00,382.00 40.00,382.00
             40.00,382.00 25.00,382.00 25.00,382.00
             25.00,382.00 25.00,366.00 25.00,366.00 Z
           M 471.00,385.00
           C 471.00,381.82 470.15,371.96 472.60,370.02
             474.58,368.46 484.10,369.00 487.00,369.00
             487.00,369.00 487.00,385.00 487.00,385.00
             487.00,385.00 471.00,385.00 471.00,385.00 Z
           M 186.00,401.00
           C 187.05,395.41 188.93,392.10 193.04,388.09
             203.00,378.40 214.29,379.94 227.00,380.00
             233.79,380.03 238.09,380.81 244.00,384.47
             250.57,388.54 251.01,390.98 254.78,396.94
             255.92,398.74 257.34,400.93 259.82,399.83
             262.07,398.84 264.65,392.61 267.67,389.17
             274.17,381.77 281.61,380.01 291.00,380.00
             301.29,379.98 310.85,378.56 320.00,384.27
             332.84,392.28 326.30,399.91 340.00,400.00
             340.00,400.00 363.00,400.00 363.00,400.00
             363.00,400.00 363.00,416.00 363.00,416.00
             363.00,416.00 341.00,416.00 341.00,416.00
             338.70,416.00 335.26,415.79 333.27,417.02
             331.09,418.38 329.87,421.81 328.39,423.99
             326.00,427.51 322.62,430.65 319.00,432.88
             311.21,437.68 301.77,437.01 293.00,437.00
             278.87,436.98 264.90,431.44 262.00,416.00
             253.04,416.74 255.80,421.84 248.82,428.82
             242.30,435.34 234.83,436.99 226.00,437.00
             216.64,437.01 206.27,438.11 198.00,432.87
             183.96,423.97 191.22,417.09 178.00,417.00
             178.00,417.00 154.00,417.00 154.00,417.00
             154.00,417.00 154.00,401.00 154.00,401.00
             154.00,401.00 186.00,401.00 186.00,401.00 Z
           M 25.00,391.00
           C 25.00,391.00 40.00,391.00 40.00,391.00
             40.00,391.00 40.00,407.00 40.00,407.00
             40.00,407.00 25.00,407.00 25.00,407.00
             25.00,407.00 25.00,391.00 25.00,391.00 Z
           M 487.00,410.00
           C 484.38,410.00 475.18,410.32 473.31,409.40
             470.17,407.86 470.04,397.05 472.60,395.02
             474.58,393.46 484.10,394.00 487.00,394.00
             487.00,394.00 487.00,410.00 487.00,410.00 Z
           M 238.00,401.00
           C 236.30,398.95 235.60,397.92 232.98,396.77
             229.73,395.61 212.41,395.57 209.00,396.77
             206.04,397.59 204.97,398.77 203.00,401.00
             203.00,401.00 212.00,401.00 212.00,401.00
             212.00,401.00 212.00,416.00 212.00,416.00
             212.00,416.00 203.00,416.00 203.00,416.00
             204.97,418.23 206.04,419.41 209.00,420.23
             212.41,421.43 229.73,421.39 232.98,420.23
             235.60,419.08 236.30,418.05 238.00,416.00
             238.00,416.00 230.00,416.00 230.00,416.00
             230.00,416.00 230.00,401.00 230.00,401.00
             230.00,401.00 238.00,401.00 238.00,401.00 Z
           M 313.00,400.00
           C 311.57,398.42 311.08,397.59 308.96,396.74
             307.16,396.01 304.91,396.03 303.00,396.00
             295.50,395.90 285.59,394.12 280.00,400.00
             280.00,400.00 287.00,400.00 287.00,400.00
             287.00,400.00 287.00,416.00 287.00,416.00
             287.00,416.00 279.00,416.00 279.00,416.00
             280.79,417.99 281.41,418.80 284.02,419.85
             288.23,421.55 304.77,421.55 308.98,419.85
             311.59,418.80 312.21,417.99 314.00,416.00
             314.00,416.00 306.00,416.00 306.00,416.00
             306.00,416.00 306.00,400.00 306.00,400.00
             306.00,400.00 313.00,400.00 313.00,400.00 Z
           M 25.00,416.00
           C 25.00,416.00 40.00,416.00 40.00,416.00
             40.31,424.96 44.79,425.62 52.00,429.72
             52.00,429.72 74.00,442.40 74.00,442.40
             77.54,444.50 86.95,448.20 86.21,453.04
             86.02,454.28 85.16,455.90 84.56,457.00
             83.60,458.76 81.75,462.01 79.79,462.71
             76.43,463.91 64.44,455.68 61.00,453.72
             61.00,453.72 36.00,439.42 36.00,439.42
             33.39,437.93 27.52,435.03 26.02,432.62
             24.41,430.05 25.00,419.52 25.00,416.00 Z
           M 471.00,420.00
           C 471.00,420.00 487.00,419.00 487.00,419.00
             487.00,419.00 487.00,428.00 487.00,428.00
             486.86,435.84 481.39,436.87 475.00,440.58
             475.00,440.58 437.00,462.00 437.00,462.00
             435.48,459.36 430.55,451.84 430.99,449.10
             431.50,445.91 438.29,442.82 441.00,441.28
             441.00,441.28 472.00,424.00 472.00,424.00
             472.00,424.00 471.00,420.00 471.00,420.00 Z" />
</svg>
