<?xml version="1.0" encoding="UTF-8" standalone="no"?>
<!DOCTYPE svg PUBLIC "-//W3C//DTD SVG 20010904//EN"
              "http://www.w3.org/TR/2001/REC-SVG-20010904/DTD/svg10.dtd">

<svg xmlns="http://www.w3.org/2000/svg" width="180.6mm" height="180.6mm" viewBox="0 0 512 512">
    <path d="M0 0h24v24H0z" fill="none"/>
    <path d="M 469.00,149.00
           C 469.00,149.00 470.00,168.00 470.00,168.00
             470.00,168.00 470.00,207.00 470.00,207.00
             470.00,207.00 470.00,342.00 470.00,342.00
             470.00,342.00 277.00,342.00 277.00,342.00
             277.00,342.00 304.00,314.00 304.00,314.00
             304.00,314.00 354.00,264.00 354.00,264.00
             354.00,264.00 326.00,245.43 326.00,245.43
             311.63,237.20 292.31,230.37 276.00,227.42
             276.00,227.42 252.00,224.91 252.00,224.91
             252.00,224.91 245.00,224.18 245.00,224.18
             245.00,224.18 237.00,224.96 237.00,224.96
             185.52,227.21 139.37,252.69 108.63,294.00
             99.60,306.14 87.44,327.30 84.00,342.00
             84.00,342.00 47.00,330.00 47.00,330.00
             44.25,329.08 35.45,326.75 34.11,324.49
             32.61,321.93 35.77,314.69 36.81,312.00
             41.60,299.63 46.82,289.38 53.60,278.00
             81.39,231.39 127.26,196.05 179.00,180.02
             229.38,164.42 283.35,167.75 332.00,187.60
             346.54,193.54 362.23,202.30 375.00,211.43
             378.05,213.61 389.12,223.12 392.00,222.99
             394.48,222.89 397.32,219.66 399.00,218.00
             399.00,218.00 413.00,204.00 413.00,204.00
             413.00,204.00 469.00,149.00 469.00,149.00 Z" />
</svg>
