<?xml version="1.0" encoding="UTF-8" standalone="no"?>
<!DOCTYPE svg PUBLIC "-//W3C//DTD SVG 20010904//EN"
                "http://www.w3.org/TR/2001/REC-SVG-20010904/DTD/svg10.dtd">

<svg xmlns="http://www.w3.org/2000/svg" width="180.6mm" height="180.6mm" viewBox="0 0 512 512">
  <path d="M0 0h24v24H0z" fill="none"/>
  <path d="M 42.00,149.00
            C 48.09,153.36 57.31,163.31 63.00,169.00
              63.00,169.00 98.00,204.00 98.00,204.00
              98.00,204.00 112.00,218.00 112.00,218.00
              113.63,219.61 116.71,223.04 119.00,223.39
              122.09,223.88 129.35,217.13 132.00,215.13
              143.85,206.17 152.14,201.48 165.00,194.44
              190.82,180.29 222.84,172.92 252.00,170.91
              252.00,170.91 262.00,170.00 262.00,170.00
              321.94,169.30 380.88,192.13 423.96,234.09
              423.96,234.09 433.00,244.00 433.00,244.00
              447.57,259.31 463.07,283.49 471.42,303.00
              471.42,303.00 477.33,318.00 477.33,318.00
              477.93,319.88 478.98,322.63 477.89,324.49
              476.55,326.75 467.75,329.08 465.00,330.00
              465.00,330.00 428.00,342.00 428.00,342.00
              424.34,326.37 411.57,304.78 401.87,292.00
              371.44,251.90 325.24,227.15 275.00,224.96
              275.00,224.96 267.00,224.18 267.00,224.18
              267.00,224.18 259.00,224.96 259.00,224.96
              221.87,226.58 186.18,240.62 158.00,265.00
              158.00,265.00 197.00,303.00 197.00,303.00
              197.00,303.00 235.00,342.00 235.00,342.00
              235.00,342.00 42.00,342.00 42.00,342.00
              42.00,342.00 42.00,149.00 42.00,149.00 Z" />
</svg>
